
        <svg xmlns="http://www.w3.org/2000/svg" xmlns:xlink="http://www.w3.org/1999/xlink" version="1.1" width="3162.162162162162" height="726.1067093517208" viewBox="0 0 3162.162162162162 726.1067093517208">
			
			<g transform="scale(8.108108108108107) translate(10, 10)">
				<defs id="SvgjsDefs1077"><linearGradient id="SvgjsLinearGradient1082"><stop id="SvgjsStop1083" stop-color="#fe8dc6" offset="0"/><stop id="SvgjsStop1084" stop-color="#fed1c7" offset="1"/></linearGradient></defs><g id="SvgjsG1078" featureKey="Df7oLJ-0" transform="matrix(0.8359945330296129,0,0,0.8359945330296129,-2.6194298974943058,-2.8431763667425973)" fill="#fff"><path xmlns="http://www.w3.org/2000/svg" d="M43.647,22.982L53.351,6.47c0.705-1.2,2.137-1.768,3.473-1.377c9.869,2.888,18.24,9.31,23.642,17.802  c1.284,2.018-0.176,4.659-2.567,4.659l-31.635,0C43.917,27.555,42.458,25.005,43.647,22.982z M60.927,37.183l15.899,27.349  c1.202,2.067,4.219,2.001,5.318-0.122c4.627-8.938,5.972-19.403,3.508-29.386c-0.333-1.351-1.544-2.304-2.936-2.31l-19.152-0.091  C61.219,32.611,59.748,35.154,60.927,37.183z M43.961,62.607H12.326c-2.391,0-3.851,2.642-2.567,4.659  c5.402,8.492,13.773,14.914,23.642,17.802c1.336,0.391,2.768-0.177,3.473-1.377l9.704-16.511  C47.767,65.157,46.308,62.607,43.961,62.607z M60.119,54.878l-16.287,27.12c-1.231,2.05,0.282,4.661,2.673,4.6  c10.061-0.259,19.877-4.129,27.433-11.103c1.023-0.944,1.273-2.464,0.607-3.686l-9.159-16.82  C64.264,52.928,61.327,52.866,60.119,54.878z M29.073,53.16L13.173,25.811c-1.202-2.067-4.219-2.001-5.318,0.122  C3.229,34.871,1.883,45.336,4.347,55.32c0.333,1.351,1.544,2.304,2.936,2.31l19.152,0.091C28.781,57.732,30.252,55.189,29.073,53.16  z M29.89,35.122l16.287-27.12c1.231-2.05-0.282-4.661-2.673-4.6C33.443,3.662,23.627,7.531,16.071,14.505  c-1.023,0.944-1.273,2.464-0.607,3.686l9.159,16.82C25.745,37.072,28.682,37.134,29.89,35.122z"/></g><g id="SvgjsG1079" featureKey="Ua4uQk-0" transform="matrix(3.02964707242022,0,0,3.02964707242022,86.90976221088975,-9.147801967610988)" fill="#fff"><path d="M6.86 9.42 c2.38 0 5.12 1.78 5.12 5.36 c0 3.72 -2.74 5.42 -5.12 5.42 c-1.6 0 -2.54 -0.88 -2.68 -1.24 l0 4.84 l-3.16 0 l0 -6.02 l0 -8.18 l3.16 0 l0 0.96 c0.14 -0.22 1.08 -1.14 2.68 -1.14 z M6.4 17.42 c1.36 0 2.52 -0.92 2.52 -2.64 c0 -1.66 -1.16 -2.58 -2.52 -2.58 c-1.3 0 -2.36 0.9 -2.36 2.58 c0 1.74 1.06 2.64 2.36 2.64 z M20.38 9.44 c0.28 0 0.56 0 0.82 0.06 l0 3.02 c-0.24 -0.06 -0.52 -0.06 -0.72 -0.06 c-1.92 0 -3.46 1.38 -3.62 3.3 l0 4.24 l-3.16 0 l0 -10.4 l3.16 0 l0 2.54 c0.48 -1.56 1.68 -2.7 3.52 -2.7 z M27.98 9.42 c2.36 0 5.48 1.78 5.48 5.42 c0 3.66 -3.12 5.36 -5.48 5.36 s-5.48 -1.7 -5.48 -5.36 c0 -3.64 3.12 -5.42 5.48 -5.42 z M27.98 12.2 c-1.2 0 -2.42 0.92 -2.42 2.64 c0 1.66 1.22 2.58 2.42 2.58 s2.44 -0.92 2.44 -2.58 c0 -1.72 -1.24 -2.64 -2.44 -2.64 z M35.98 9.28 c0 -3.22 2.42 -3.62 3.68 -3.62 c1 0 1.98 0.22 2.72 0.7 l-1.06 2.18 c-0.58 -0.22 -0.8 -0.28 -1.28 -0.28 c-0.9 0 -0.88 0.82 -0.88 1.02 l0 0.32 l2.16 0 l0 2.6 l-2.16 0 l0 7.8 l-3.18 0 l0 -7.8 l-1.42 0 l0 -2.6 l1.42 0 l0 -0.32 z M42.779999999999994 9.6 l3.16 0 l0 10.4 l-3.16 0 l0 -10.4 z M53.03999999999999 17.36 c0.56 0 0.96 -0.08 1.4 -0.2 l0 2.62 c-0.44 0.2 -1.16 0.34 -2.22 0.34 c-1.74 0 -3.2 -0.58 -3.2 -3.78 l0 -4.14 l-1.46 0 l0 -2.6 l1.46 0 l0 -2.44 l3.16 0 l0 2.44 l2.22 0 l0 2.6 l-2.22 0 l0 4.14 c0 0.46 0.12 1.02 0.86 1.02 z M59.279999999999994 5.859999999999999 l0 14.14 l-3.16 0 l0 -14.14 l3.16 0 z M66.47999999999999 9.42 c2.36 0 5.66 1.78 5 6.48 l-7.26 0 c0.36 1.08 1.3 1.64 2.56 1.64 c1.28 0 1.68 -0.28 2.4 -0.58 l1.74 1.68 c-0.92 0.9 -2.16 1.56 -4.26 1.56 c-2.58 0 -5.66 -1.78 -5.66 -5.36 c0 -3.64 3.12 -5.42 5.48 -5.42 z M66.47999999999999 12.120000000000001 c-0.9 0 -1.82 0.52 -2.22 1.56 l4.42 0 c-0.32 -1.04 -1.3 -1.56 -2.2 -1.56 z M79.66 9.44 c1.94 0 3.92 1.3 3.92 4.6 l0 5.96 l-3.16 0 l0 -5.74 c0 -1.58 -0.54 -2.08 -1.54 -2.08 c-1.42 0 -2.24 1.38 -2.44 1.98 l0 5.84 l-3.16 0 l0 -10.4 l3.16 0 l0 1.8 c0.2 -0.5 1.26 -1.96 3.22 -1.96 z M90.43999999999998 12.879999999999999 c-0.28 -0.72 -0.7 -0.96 -1.16 -0.96 c-0.42 0 -0.84 0.24 -0.84 0.64 c0 0.38 0.24 0.6 0.7 0.76 l1.32 0.46 c1.48 0.54 2.98 1.08 2.98 3.16 c0 2.1 -2.1 3.3 -4.26 3.3 c-1.94 0 -3.76 -1.14 -4.2 -2.96 l2.48 -0.78 c0.26 0.58 0.72 1.24 1.72 1.24 c0.68 0 1.12 -0.44 1.12 -0.84 c0 -0.2 -0.16 -0.46 -0.66 -0.66 l-1.22 -0.44 c-2.08 -0.76 -3.06 -1.82 -3.06 -3.3 c0 -1.94 1.8 -3.08 3.78 -3.08 c2.02 0 3.36 1.1 3.96 2.76 z"/></g>
			</g>
		</svg>
	